grf
version=1
nRows=14
nColumns=28
inDegrees=no
endheader
time	ground_force_1_vx	ground_force_1_vy	ground_force_1_vz	ground_force_1_px	ground_force_1_py	ground_force_1_pz	ground_moment_1_mx	ground_moment_1_my	ground_moment_1_mz	ground_force_2_vx	ground_force_2_vy	ground_force_2_vz	ground_force_2_px	ground_force_2_py	ground_force_2_pz	ground_moment_2_mx	ground_moment_2_my	ground_moment_2_mz	ground_force_3_vx	ground_force_3_vy	ground_force_3_vz	ground_force_3_px	ground_force_3_py	ground_force_3_pz	ground_moment_3_mx	ground_moment_3_my	ground_moment_3_mz
      0.00000000	      0.24208617	      0.48951531	      1.34607912	    253.95457715	  -1372.09821632	      2.26193748	      0.09071232	      0.32801692	    179.73560887	      0.74869457	     -1.90883251	      2.01112748	    121.95926801	  -1537.34287545	      0.30307075	      0.03461701	      0.44769967	   -536.46661200	      1.66059343	     -0.65535699	      4.31274184	    436.72982655	   -294.02618549	      0.39785056	     -0.13436575	      0.98704102	    480.62989818
      0.01000000	      0.39886596	      0.25086174	      1.36877867	    238.46106194	  -1246.84890645	      2.04117744	      0.07525353	      0.27211775	    149.10587329	      0.51954356	     -1.86639321	      2.27776694	    159.06154242	  -1622.33104766	      0.23453935	      0.03512323	      0.45424659	   -544.31161136	      1.72929073	     -0.71033251	      4.34937895	    478.60753847	   -305.43991780	      0.43299767	     -0.12422932	      0.91257951	    444.37159955
      0.02000000	      0.35240428	      0.19659543	      1.59870991	    301.71539459	  -1227.51072780	      1.97396095	      0.06578343	      0.23787372	    130.34199222	      0.63771582	     -1.51763968	      2.35113707	    175.40859055	  -1631.27905336	      0.22812677	      0.02479064	      0.32061587	   -384.18547836	      1.53924766	     -0.76738595	      4.46047641	    495.66114900	   -283.53280730	      0.39277588	     -0.10945427	      0.80404308	    391.52085707
      0.03000000	      0.41925528	      0.41360551	      1.54045129	    257.76927035	  -1287.75555158	      2.10608711	      0.06115837	      0.22114944	    121.17798470	      0.44071710	     -1.30183047	      2.10583551	    136.12855686	  -1572.15387969	      0.27493409	      0.02755709	      0.35639408	   -427.05755659	      1.59319933	     -0.65644429	      3.92921614	    509.43872980	   -264.01329309	      0.35654150	     -0.14869433	      1.09229768	    531.88359110
      0.04000000	      0.50655308	      0.39447445	      1.83606071	    328.74835656	  -1318.56198671	      2.12648571	      0.04816637	      0.17417021	     95.43589707	      0.71619653	     -1.10116536	      1.67020952	    -10.18088552	  -1540.05430772	      0.29228125	      0.03013802	      0.38977320	   -467.05486326	      1.62337243	     -0.60370324	      5.09282317	    474.83660756	   -293.86253634	      0.40816768	     -0.15104729	      1.10958238	    540.30020451
      0.05000000	      0.52590691	      0.08764285	      1.50614879	    202.88708499	  -1341.32369636	      2.23154777	      0.05845945	      0.21139011	    115.83039815	      0.47168791	     -1.01446284	      2.01176283	    170.77513845	  -1594.48578164	      0.25853303	      0.01432432	      0.18525550	   -221.98673670	      1.50193400	     -0.49746544	      4.39066375	    432.58215669	   -292.43958426	      0.39343272	     -0.11258852	      0.82706706	    402.73215638
      0.06000000	      0.33893867	      0.49220213	      1.09884083	    225.28295402	  -1257.85878536	      2.06792141	      0.11397660	      0.41214086	    225.83100003	      0.48990039	     -0.47921823	      1.86619019	     87.21352454	  -1520.19497031	      0.31513919	      0.00737685	      0.09540428	   -114.32041501	      1.47377263	     -0.63809079	      4.18566449	    507.82589186	   -273.22130156	      0.37500055	     -0.15704841	      1.15366612	    561.76635061
      0.07000000	      0.74674585	      0.20404007	      1.86503591	    281.53674150	  -1347.75957157	      2.20359885	      0.04546106	      0.16438778	     90.07565421	      1.75929313	     36.23048010	    -78.37317263	    445.22334394	  -2004.70911879	     -0.06610279	      0.02887728	      0.37346813	   -447.51692864	      1.84753563	     -0.34026134	      4.20713725	    447.51227704	   -263.63826167	      0.33845905	     -0.14668114	      1.07750893	    524.68235529
      0.08000000	      0.42221437	      0.72543217	      1.62195805	    293.70614746	  -1126.46619382	      1.79359725	      0.14446807	      0.52239842	    286.24620483	    -11.96983548	     74.96804724	   -288.53485566	    454.45982270	  -1963.01285540	     -0.03070983	      0.08254304	      1.06752399	  -1279.18562168	      1.43401677	     -0.65989160	      5.61999439	    478.22168637	   -322.21058858	      0.46733073	     -0.08175540	      0.60056918	    292.44124266
      0.09000000	      0.59012013	      0.27206302	      1.41967298	    280.11448634	  -1350.08686829	      2.20856397	      0.04400318	      0.15911608	     87.18704333	    -35.16188048	     19.50177656	   -448.29746354	    462.86634202	  -1953.23786785	     -0.02200981	      0.10674098	      1.38047444	  -1654.18582781	      1.58907838	     -0.55270430	      4.29072693	    454.68261476	   -255.35158989	      0.32344576	     -0.14694761	      1.07946643	    525.63554291
      0.10000000	      0.36332596	      0.44760849	      1.18697908	    318.39018380	  -1313.51650872	      2.12250548	      0.08520751	      0.30811146	    168.82849039	    -58.62088834	    -96.10230804	   -615.31053278	    466.02987618	  -1935.05517603	     -0.00663160	     -0.01587157	     -0.20526607	    245.96487300	      1.50200361	     -0.49835599	      3.99718497	    506.54499754	   -283.29627473	      0.39533283	     -0.14246274	      1.04652086	    509.59301947
      0.11000000	      0.68999060	      0.24124094	      1.66690391	    337.66436252	  -1323.41538312	      2.13084325	      0.02983108	      0.10786958	     59.10672045	    -61.72098517	   -174.14670633	   -794.90714226	    463.16006241	  -1918.67162821	      0.00685585	     -0.13567300	     -1.75465055	   2102.55111762	      1.40531754	     -0.63102563	      3.94418991	    461.97422335	   -239.63665403	      0.29321138	     -0.13148271	      0.96586241	    470.31718358
      0.12000000	      0.36772600	     -0.08153839	      2.29117813	    394.29547577	  -1291.46024886	      2.04394358	      0.03929700	      0.14209845	     77.86229867	    -42.03453290	   -208.80738521	  -1006.43897208	    458.53808153	  -1904.84352316	      0.01809763	     -0.10145002	     -1.31204679	   1572.19079086	      1.57138448	     -0.71067396	      4.21234030	    489.67392739	   -280.84037601	      0.38557279	     -0.14343266	      1.05364585	    513.06246288
      0.13000000	      0.67656396	      0.11261300	      1.20525434	    341.55932355	  -1426.68286603	      2.31734029	      0.02922696	      0.10568506	     57.90972423	     19.83795300	   -265.40446346	  -1153.07810158	    453.54289352	  -1894.21015891	      0.02664920	      0.16149580	      2.08861521	  -2502.73209597	      1.49847136	     -0.72160564	      3.91808271	    504.03910587	   -262.87316986	      0.35269057	     -0.15200812	      1.11664058	    543.73712592
